<?xml version="1.0" encoding="UTF-8"?>
<svg width="120px" height="23px" viewBox="0 0 120 23" version="1.1" xmlns="http://www.w3.org/2000/svg" xmlns:xlink="http://www.w3.org/1999/xlink">
    <defs>
        <polygon id="path-1" points="0.000267220393 0.38986934 9.63507216 0.38986934 9.63507216 23 0.000267220393 23"></polygon>
    </defs>
    <path d="M28.6245773,5.65308919 L28.6245773,12.2335757 L22.1167423,12.2335757 L22.1167423,6.50657568 C22.1167423,6.03538649 21.7363299,5.65308919 21.2674639,5.65308919 L19.0709691,5.65308919 L19.0709691,21.4043595 C19.0709691,21.8755486 19.4507629,22.2572243 19.9202474,22.2572243 L22.1167423,22.2572243 L22.1167423,14.9077919 L28.6245773,14.9077919 L28.6245773,21.4043595 C28.6245773,21.8755486 29.0049897,22.2572243 29.4738557,22.2572243 L31.6703505,22.2572243 L31.6703505,6.50657568 C31.6703505,6.03538649 31.2899381,5.65308919 30.8210722,5.65308919 L28.6245773,5.65308919 Z" fill="#C7CCE6"></path>
    <path d="M41.5399794,9.7704 L41.5399794,17.6631297 C41.5399794,18.3798595 41.176268,19.0599135 40.5583299,19.4185892 C38.8337938,20.4200216 37.0486392,19.1693189 37.0486392,17.5201568 L37.0486392,10.6238865 C37.0486392,10.1526973 36.6688454,9.7704 36.1999794,9.7704 L33.9948247,9.7704 L33.9942062,9.7704 L33.9942062,17.8011297 C33.9942062,20.3852108 36.0979175,22.4993459 38.6692577,22.4993459 L39.9193608,22.4993459 C42.490701,22.4993459 44.5944124,20.3852108 44.5944124,17.8011297 L44.5944124,10.6238865 C44.5944124,10.1526973 44.214,9.7704 43.745134,9.7704 L41.5399794,9.7704 Z" fill="#C7CCE6"></path>
    <path d="M74.8559381,22.257473 L77.052433,22.257473 L77.052433,11.0807162 C77.052433,10.609527 76.6726392,10.2272297 76.2037732,10.2272297 L74.0066598,10.2272297 L74.0066598,21.4046081 C74.0066598,21.8757973 74.3870722,22.257473 74.8559381,22.257473" fill="#C7CCE6"></path>
    <path d="M75.529732,9.04708108 C76.468701,9.04708108 77.2295258,8.28248649 77.2295258,7.33886486 C77.2295258,6.39586486 76.468701,5.63064865 75.529732,5.63064865 C74.5907629,5.63064865 73.8299381,6.39586486 73.8299381,7.33886486 C73.8299381,8.28248649 74.5907629,9.04708108 75.529732,9.04708108" fill="#C7CCE6"></path>
    <path d="M55.2128041,17.2143811 C55.2128041,18.7330027 53.9763093,19.7437595 52.4657938,19.7437595 C50.9546598,19.7437595 49.7181649,18.7330027 49.7181649,17.2143811 L49.7181649,15.0474081 C49.7181649,13.5287865 50.9546598,12.5180297 52.4657938,12.5180297 C53.9763093,12.5180297 55.2128041,13.5287865 55.2128041,15.0474081 L55.2128041,17.2143811 Z M52.4657938,9.7630027 C49.2709485,9.7630027 46.6569278,12.059273 46.6569278,15.2699486 L46.6569278,17.0061378 C46.6569278,20.2161919 49.2709485,22.4994081 52.4657938,22.4994081 C55.6600206,22.4994081 58.2740412,20.2161919 58.2740412,17.0061378 L58.2740412,15.2699486 C58.2740412,12.059273 55.6600206,9.7630027 52.4657938,9.7630027 Z" fill="#C7CCE6"></path>
    <path d="M116.913835,17.2143811 C116.913835,18.7330027 115.67734,19.7437595 114.166825,19.7437595 C112.655691,19.7437595 111.419196,18.7330027 111.419196,17.2143811 L111.419196,15.0474081 C111.419196,13.5287865 112.655691,12.5180297 114.166825,12.5180297 C115.67734,12.5180297 116.913835,13.5287865 116.913835,15.0474081 L116.913835,17.2143811 Z M114.166825,9.7630027 C110.971979,9.7630027 108.357959,12.059273 108.357959,15.2699486 L108.357959,17.0061378 C108.357959,20.2161919 110.971979,22.4994081 114.166825,22.4994081 C117.361052,22.4994081 119.975072,20.2161919 119.975072,17.0061378 L119.975072,15.2699486 C119.975072,12.059273 117.361052,9.7630027 114.166825,9.7630027 Z" fill="#C7CCE6"></path>
    <path d="M68.8914433,17.2143811 C68.8914433,18.7330027 67.6549485,19.7437595 66.144433,19.7437595 C64.633299,19.7437595 63.3974227,18.7330027 63.3974227,17.2143811 L63.3974227,15.0474081 C63.3974227,13.5287865 64.633299,12.5180297 66.144433,12.5180297 C67.6549485,12.5180297 68.8914433,13.5287865 68.8914433,15.0474081 L68.8914433,17.2143811 Z M66.144433,9.7630027 C65.1460825,9.7630027 64.2040206,9.98740811 63.3813402,10.393327 L63.3813402,6.52248919 C63.3813402,6.0513 63.0015464,5.66962432 62.5326804,5.66962432 L60.335567,5.66962432 L60.335567,17.0061378 C60.335567,20.2168135 62.9495876,22.4994081 66.144433,22.4994081 C69.3386598,22.4994081 71.9526804,20.2168135 71.9526804,17.0061378 L71.9526804,15.2699486 C71.9526804,12.059273 69.3386598,9.7630027 66.144433,9.7630027 Z" fill="#C7CCE6"></path>
    <mask id="mask-2" fill="white">
        <use xlink:href="#path-1"></use>
    </mask>
    <path d="M9.63507216,7.34825135 C9.63507216,4.10214324 8.06146392,1.31044054 6.8645567,0.401008108 C6.85960825,0.398521622 6.77301031,0.349413514 6.78043299,0.479332432 C6.78043299,0.480575676 6.77857732,0.481818919 6.77857732,0.483062162 C6.67898969,6.75149459 3.49280412,8.44976486 1.74105155,10.7385757 C-2.30121649,16.019873 1.45837113,21.8096568 5.28661856,22.8800892 C7.42868041,23.4787108 4.7917732,21.8202243 4.45218557,18.3173865 C4.04146392,14.0841432 9.63507216,10.8529541 9.63507216,7.34825135" fill="#C7CCE6" mask="url(#mask-2)"></path>
    <path d="M11.7353814,9.48234054 C11.7094021,9.46555676 11.6716701,9.45436757 11.6463093,9.49415135 C11.5757938,10.2836108 10.7197113,11.9706919 9.63476289,13.5210162 C5.95496907,18.7780703 8.05187629,21.3118 9.23146392,22.6731514 C9.91620619,23.4632324 9.23146392,22.6731514 10.9423918,21.8656649 C11.0772371,21.8022595 14.2819794,20.1102054 14.6289897,16.2542865 C14.964866,12.5195838 12.5834227,10.1661243 11.7353814,9.48234054" fill="#C7CCE6"></path>
    <path d="M103.965526,9.81322973 C100.680371,9.81322973 99.3622268,12.2077162 99.3622268,14.7184459 L99.3622268,21.5724459 C99.3622268,22.0753378 99.768,22.4837432 100.268412,22.4837432 L102.484701,22.4837432 L102.484701,15.2766622 C102.484701,14.0520676 102.803258,13.3030135 103.395835,12.9200946 C103.865938,12.5489865 104.783258,12.2916351 106.55666,12.9747973 L106.55666,10.8600405 C106.55666,10.4578514 105.885526,9.81322973 103.965526,9.81322973" fill="#C7CCE6"></path>
    <path d="M93.9979794,13.0430514 C93.9979794,14.5610514 92.6829278,15.5724297 91.0746804,15.5724297 C89.4670515,15.5724297 88.1513814,14.5610514 88.1513814,13.0430514 L88.1513814,10.8760784 C88.1513814,9.35745676 89.4670515,8.3467 91.0746804,8.3467 C92.6829278,8.3467 93.9979794,9.35745676 93.9979794,10.8760784 L93.9979794,13.0430514 Z M91.0746804,5.59105135 C89.9377732,5.59105135 88.8732371,5.85151081 87.9559175,6.31151081 C87.8903505,5.88942973 87.5309691,5.56556486 87.0924124,5.56556486 L84.8841649,5.56556486 L84.8841649,19.4743486 L84.8940619,19.4743486 L84.8940619,21.5399973 C84.8940619,22.026727 85.2868454,22.4208351 85.7711753,22.4208351 L88.1346804,22.4208351 L88.1346804,17.6971324 C89.0105567,18.103673 90.0126186,18.3274568 91.0746804,18.3274568 C94.474268,18.3274568 97.255299,16.0311865 97.255299,12.8211324 L97.255299,11.0843216 C97.255299,7.87426757 94.474268,5.59105135 91.0746804,5.59105135 Z" fill="#C7CCE6"></path>
</svg>